<mxfile host="app.diagrams.net" modified="2023-08-28T21:23:30.527Z" agent="Mozilla/5.0 (Windows NT 10.0; Win64; x64) AppleWebKit/537.36 (KHTML, like Gecko) Chrome/116.0.0.0 Safari/537.36" etag="GAMyATV_vlIw2NavAhdu" version="21.6.9" type="github">
  <diagram name="Page-1" id="rCJpI6qXtUCB12Z0uTbw">
    <mxGraphModel dx="1098" dy="1140" grid="1" gridSize="10" guides="1" tooltips="1" connect="1" arrows="1" fold="1" page="1" pageScale="1" pageWidth="583" pageHeight="827" math="0" shadow="0">
      <root>
        <mxCell id="0" />
        <mxCell id="1" parent="0" />
        <mxCell id="GBBGYH43FevbotDyQqNy-1" value="" style="rounded=1;whiteSpace=wrap;html=1;fillColor=#d5e8d4;strokeColor=#82b366;" parent="1" vertex="1">
          <mxGeometry x="920" y="90" width="100" height="240" as="geometry" />
        </mxCell>
        <mxCell id="PeT0A_K3gaV03i7FRMbl-28" value="&lt;p style=&quot;line-height: 0%;&quot;&gt;&lt;br&gt;&lt;/p&gt;" style="html=1;outlineConnect=0;whiteSpace=wrap;fillColor=#FFE0E0;shape=mxgraph.archimate3.application;archiType=rounded;align=left;" parent="1" vertex="1">
          <mxGeometry x="128" y="20" width="742" height="500" as="geometry" />
        </mxCell>
        <mxCell id="PeT0A_K3gaV03i7FRMbl-36" style="edgeStyle=orthogonalEdgeStyle;rounded=0;orthogonalLoop=1;jettySize=auto;html=1;entryX=0;entryY=0.5;entryDx=0;entryDy=0;" parent="1" source="PeT0A_K3gaV03i7FRMbl-3" target="PeT0A_K3gaV03i7FRMbl-21" edge="1">
          <mxGeometry relative="1" as="geometry" />
        </mxCell>
        <mxCell id="PeT0A_K3gaV03i7FRMbl-53" style="edgeStyle=orthogonalEdgeStyle;rounded=0;orthogonalLoop=1;jettySize=auto;html=1;entryX=0;entryY=0.75;entryDx=0;entryDy=0;" parent="1" source="PeT0A_K3gaV03i7FRMbl-3" target="PeT0A_K3gaV03i7FRMbl-48" edge="1">
          <mxGeometry relative="1" as="geometry">
            <Array as="points">
              <mxPoint x="454" y="260" />
              <mxPoint x="454" y="409" />
            </Array>
          </mxGeometry>
        </mxCell>
        <mxCell id="PeT0A_K3gaV03i7FRMbl-3" value="Services" style="label;whiteSpace=wrap;html=1;align=center;verticalAlign=bottom;spacingLeft=0;spacingBottom=4;imageAlign=center;imageVerticalAlign=top;image=img/clipart/Gear_128x128.png" parent="1" vertex="1">
          <mxGeometry x="318" y="200" width="90" height="80" as="geometry" />
        </mxCell>
        <mxCell id="PeT0A_K3gaV03i7FRMbl-32" style="edgeStyle=orthogonalEdgeStyle;rounded=0;orthogonalLoop=1;jettySize=auto;html=1;" parent="1" source="PeT0A_K3gaV03i7FRMbl-6" target="PeT0A_K3gaV03i7FRMbl-3" edge="1">
          <mxGeometry relative="1" as="geometry" />
        </mxCell>
        <mxCell id="PeT0A_K3gaV03i7FRMbl-6" value="" style="strokeWidth=1;shadow=0;dashed=0;align=center;html=1;shape=mxgraph.mockup.buttons.multiButton;fillColor=#dae8fc;strokeColor=#6c8ebf;mainText=;subText=;" parent="1" vertex="1">
          <mxGeometry x="138" y="204" width="140" height="70" as="geometry" />
        </mxCell>
        <mxCell id="PeT0A_K3gaV03i7FRMbl-7" value="Presentation&lt;br&gt;(aspx)" style="strokeWidth=1;shadow=0;dashed=0;align=center;html=1;shape=mxgraph.mockup.anchor;fontSize=14;fontStyle=1;whiteSpace=wrap;fillColor=#dae8fc;strokeColor=#6c8ebf;" parent="PeT0A_K3gaV03i7FRMbl-6" vertex="1">
          <mxGeometry y="21" width="140" height="28" as="geometry" />
        </mxCell>
        <mxCell id="PeT0A_K3gaV03i7FRMbl-16" value="ObjetsMetier librairie" style="shape=folder;fontStyle=1;tabWidth=130;tabHeight=20;tabPosition=left;html=1;boundedLbl=1;labelInHeader=1;container=1;collapsible=0;whiteSpace=wrap;" parent="1" vertex="1">
          <mxGeometry x="480" y="30" width="300" height="180" as="geometry" />
        </mxCell>
        <mxCell id="PeT0A_K3gaV03i7FRMbl-17" value="" style="html=1;strokeColor=none;resizeWidth=1;resizeHeight=1;fillColor=none;part=1;connectable=0;allowArrows=0;deletable=0;whiteSpace=wrap;" parent="PeT0A_K3gaV03i7FRMbl-16" vertex="1">
          <mxGeometry width="300" height="109.00439766419149" relative="1" as="geometry">
            <mxPoint y="30" as="offset" />
          </mxGeometry>
        </mxCell>
        <mxCell id="PeT0A_K3gaV03i7FRMbl-24" style="edgeStyle=orthogonalEdgeStyle;rounded=0;orthogonalLoop=1;jettySize=auto;html=1;entryX=0.5;entryY=0;entryDx=0;entryDy=0;entryPerimeter=0;" parent="PeT0A_K3gaV03i7FRMbl-16" source="PeT0A_K3gaV03i7FRMbl-21" target="PeT0A_K3gaV03i7FRMbl-22" edge="1">
          <mxGeometry relative="1" as="geometry">
            <Array as="points">
              <mxPoint x="245" y="110" />
            </Array>
          </mxGeometry>
        </mxCell>
        <mxCell id="-I0i3U4V1WcIUfZD0PCD-8" value="generer Xlsx" style="edgeLabel;html=1;align=center;verticalAlign=middle;resizable=0;points=[];" vertex="1" connectable="0" parent="PeT0A_K3gaV03i7FRMbl-24">
          <mxGeometry x="-0.0959" y="-4" relative="1" as="geometry">
            <mxPoint x="1" as="offset" />
          </mxGeometry>
        </mxCell>
        <mxCell id="PeT0A_K3gaV03i7FRMbl-21" value="Services" style="label;whiteSpace=wrap;html=1;align=center;verticalAlign=bottom;spacingLeft=0;spacingBottom=4;imageAlign=center;imageVerticalAlign=top;image=img/clipart/Gear_128x128.png" parent="PeT0A_K3gaV03i7FRMbl-16" vertex="1">
          <mxGeometry x="19" y="52.3" width="90" height="75.41" as="geometry" />
        </mxCell>
        <mxCell id="-I0i3U4V1WcIUfZD0PCD-6" style="edgeStyle=orthogonalEdgeStyle;rounded=0;orthogonalLoop=1;jettySize=auto;html=1;exitX=0.005;exitY=0.995;exitDx=0;exitDy=0;exitPerimeter=0;entryX=0.5;entryY=1;entryDx=0;entryDy=0;" edge="1" parent="PeT0A_K3gaV03i7FRMbl-16" source="PeT0A_K3gaV03i7FRMbl-22" target="PeT0A_K3gaV03i7FRMbl-21">
          <mxGeometry relative="1" as="geometry">
            <Array as="points">
              <mxPoint x="200" y="160" />
              <mxPoint x="64" y="160" />
            </Array>
          </mxGeometry>
        </mxCell>
        <mxCell id="-I0i3U4V1WcIUfZD0PCD-7" value="&lt;font style=&quot;font-size: 12px;&quot;&gt;&lt;b&gt;.xlsx généré&lt;/b&gt;&lt;/font&gt;" style="edgeLabel;html=1;align=center;verticalAlign=middle;resizable=0;points=[];" vertex="1" connectable="0" parent="-I0i3U4V1WcIUfZD0PCD-6">
          <mxGeometry x="-0.133" y="6" relative="1" as="geometry">
            <mxPoint x="1" y="-5" as="offset" />
          </mxGeometry>
        </mxCell>
        <mxCell id="PeT0A_K3gaV03i7FRMbl-22" value="NPOI library" style="html=1;whiteSpace=wrap;strokeColor=none;fillColor=#0079D6;labelPosition=center;verticalLabelPosition=middle;verticalAlign=top;align=center;fontSize=12;outlineConnect=0;spacingTop=-6;fontColor=#FFFFFF;sketch=0;shape=mxgraph.sitemap.services;" parent="PeT0A_K3gaV03i7FRMbl-16" vertex="1">
          <mxGeometry x="200" y="120" width="90" height="49" as="geometry" />
        </mxCell>
        <mxCell id="PeT0A_K3gaV03i7FRMbl-29" value="&lt;font style=&quot;font-size: 18px;&quot;&gt;Site Geosel&lt;/font&gt;" style="text;html=1;strokeColor=none;fillColor=none;align=center;verticalAlign=middle;whiteSpace=wrap;rounded=0;fontSize=15;fontStyle=1" parent="1" vertex="1">
          <mxGeometry x="138" y="30" width="132" height="30" as="geometry" />
        </mxCell>
        <mxCell id="PeT0A_K3gaV03i7FRMbl-33" value="" style="shape=image;verticalLabelPosition=bottom;labelBackgroundColor=default;verticalAlign=top;aspect=fixed;imageAspect=0;image=https://cdn-icons-png.flaticon.com/512/5968/5968364.png;" parent="1" vertex="1">
          <mxGeometry x="932.5" y="223" width="77" height="77" as="geometry" />
        </mxCell>
        <mxCell id="PeT0A_K3gaV03i7FRMbl-40" style="edgeStyle=orthogonalEdgeStyle;rounded=0;orthogonalLoop=1;jettySize=auto;html=1;" parent="1" source="PeT0A_K3gaV03i7FRMbl-37" target="PeT0A_K3gaV03i7FRMbl-6" edge="1">
          <mxGeometry relative="1" as="geometry" />
        </mxCell>
        <mxCell id="PeT0A_K3gaV03i7FRMbl-37" value="" style="sketch=0;outlineConnect=0;fontColor=#232F3E;gradientColor=none;fillColor=#3F8624;strokeColor=none;dashed=0;verticalLabelPosition=bottom;verticalAlign=top;align=center;html=1;fontSize=12;fontStyle=0;aspect=fixed;pointerEvents=1;shape=mxgraph.aws4.http_protocol;" parent="1" vertex="1">
          <mxGeometry x="50" y="223" width="30" height="30" as="geometry" />
        </mxCell>
        <mxCell id="PeT0A_K3gaV03i7FRMbl-41" value="ADC librairie" style="shape=folder;fontStyle=1;tabWidth=130;tabHeight=20;tabPosition=left;html=1;boundedLbl=1;labelInHeader=1;container=1;collapsible=0;whiteSpace=wrap;" parent="1" vertex="1">
          <mxGeometry x="480" y="300" width="300" height="180" as="geometry" />
        </mxCell>
        <mxCell id="PeT0A_K3gaV03i7FRMbl-42" value="" style="html=1;strokeColor=none;resizeWidth=1;resizeHeight=1;fillColor=none;part=1;connectable=0;allowArrows=0;deletable=0;whiteSpace=wrap;" parent="PeT0A_K3gaV03i7FRMbl-41" vertex="1">
          <mxGeometry width="300" height="109.00439766419149" relative="1" as="geometry">
            <mxPoint y="30" as="offset" />
          </mxGeometry>
        </mxCell>
        <mxCell id="PeT0A_K3gaV03i7FRMbl-48" value="Services" style="label;whiteSpace=wrap;html=1;align=center;verticalAlign=bottom;spacingLeft=0;spacingBottom=4;imageAlign=center;imageVerticalAlign=top;image=img/clipart/Gear_128x128.png" parent="PeT0A_K3gaV03i7FRMbl-41" vertex="1">
          <mxGeometry x="19" y="52.3" width="90" height="75.41" as="geometry" />
        </mxCell>
        <mxCell id="PeT0A_K3gaV03i7FRMbl-54" value="&lt;font color=&quot;#c70a1d&quot;&gt;Authentification&lt;/font&gt;" style="sketch=0;outlineConnect=0;fontColor=#232F3E;gradientColor=none;fillColor=#BF0816;strokeColor=none;dashed=0;verticalLabelPosition=bottom;verticalAlign=top;align=center;html=1;fontSize=12;fontStyle=0;aspect=fixed;pointerEvents=1;shape=mxgraph.aws4.addon;" parent="PeT0A_K3gaV03i7FRMbl-41" vertex="1">
          <mxGeometry x="190" y="30" width="58" height="29.74" as="geometry" />
        </mxCell>
        <mxCell id="PeT0A_K3gaV03i7FRMbl-55" value="Log" style="html=1;whiteSpace=wrap;strokeColor=none;fillColor=#0079D6;labelPosition=center;verticalLabelPosition=middle;verticalAlign=top;align=center;fontSize=12;outlineConnect=0;spacingTop=-6;fontColor=#FFFFFF;sketch=0;shape=mxgraph.sitemap.log;" parent="PeT0A_K3gaV03i7FRMbl-41" vertex="1">
          <mxGeometry x="180" y="100" width="99" height="60" as="geometry" />
        </mxCell>
        <mxCell id="PeT0A_K3gaV03i7FRMbl-52" style="edgeStyle=orthogonalEdgeStyle;rounded=0;orthogonalLoop=1;jettySize=auto;html=1;entryX=0.5;entryY=1;entryDx=0;entryDy=0;exitX=1;exitY=0.5;exitDx=0;exitDy=0;" parent="1" source="PeT0A_K3gaV03i7FRMbl-48" edge="1">
          <mxGeometry relative="1" as="geometry">
            <mxPoint x="600" y="389.9999999999999" as="sourcePoint" />
            <mxPoint x="981.9999999999998" y="300" as="targetPoint" />
          </mxGeometry>
        </mxCell>
        <mxCell id="-I0i3U4V1WcIUfZD0PCD-5" style="edgeStyle=orthogonalEdgeStyle;rounded=0;orthogonalLoop=1;jettySize=auto;html=1;" edge="1" parent="1" source="-I0i3U4V1WcIUfZD0PCD-3">
          <mxGeometry relative="1" as="geometry">
            <mxPoint x="975" y="220" as="targetPoint" />
            <Array as="points">
              <mxPoint x="975" y="190" />
              <mxPoint x="975" y="190" />
            </Array>
          </mxGeometry>
        </mxCell>
        <mxCell id="-I0i3U4V1WcIUfZD0PCD-13" style="edgeStyle=orthogonalEdgeStyle;rounded=0;orthogonalLoop=1;jettySize=auto;html=1;exitX=0;exitY=0.5;exitDx=0;exitDy=0;entryX=1;entryY=0.5;entryDx=0;entryDy=0;" edge="1" parent="1" source="-I0i3U4V1WcIUfZD0PCD-3" target="PeT0A_K3gaV03i7FRMbl-21">
          <mxGeometry relative="1" as="geometry">
            <Array as="points">
              <mxPoint x="820" y="146" />
              <mxPoint x="820" y="120" />
            </Array>
          </mxGeometry>
        </mxCell>
        <mxCell id="-I0i3U4V1WcIUfZD0PCD-15" value="&lt;font size=&quot;1&quot; style=&quot;&quot;&gt;&lt;b style=&quot;font-size: 13px;&quot;&gt;.xlsx généré&lt;/b&gt;&lt;/font&gt;" style="edgeLabel;html=1;align=center;verticalAlign=middle;resizable=0;points=[];" vertex="1" connectable="0" parent="-I0i3U4V1WcIUfZD0PCD-13">
          <mxGeometry x="-0.0959" relative="1" as="geometry">
            <mxPoint x="-18" as="offset" />
          </mxGeometry>
        </mxCell>
        <mxCell id="-I0i3U4V1WcIUfZD0PCD-3" value="" style="shape=image;verticalLabelPosition=bottom;labelBackgroundColor=default;verticalAlign=top;aspect=fixed;imageAspect=0;image=data:image/png,iVBORw0KGgoAAAANSUhEUgAAAPoAAAD6CAYAAACI7Fo9AAAACXBIWXMAAA7DAAAOwwHHb6hkAABlbUlEQVR4Xu2dBXQUVxfHA8EtgeAS3INDcSulaIHSYqXUoe1HXai7UxfaUsNKsQLF21KKu0NwD8GCxUgIScj3u8POdnazMisJJHlzzp7A7psnd+b/7n1XAwLUpSigKKAooCigKKAooCigKKAooCigKKAooCigKHAjUCDXjTAJNQfPKXDq1Kmu586du51Px8qVK39brVq1MZ73ou7IKRRQQM9CTzo6OrrOsWPHRgLyXlevXg3OnTt30cDAwDwFCxbc3bZt27BcuXKlZaHlqKlmIgUU0DOR2N4MBbirA+4RgLtnUlJSWYCdSj+pwcHBB8uXL/9PVFTUo3FxccXDwsIGlytXbo43Y6h7sj8F8mT/JWa9FQLoQkeOHLn76NGjwxcvXlxNuDaruFy8ePEtiOnjy5Qp81fhwoUvpKWl5b5y5Up5gP4IG8H/aKOAnvUed6bMWAE9U8hsbpCIiIiuhw4devj3GTM65Q4MLMhduYOCgvZUqFBhVo0aNb4B3NHGnhDVr3LPNr5LiYmJuenSpUvVaXPI3GiqVU6igAL6dX7agLP0zp07Xzp08ODAZUuXBsO9czOlxKpVq/6CaP57aGjocldTLFas2Dppzyf4+PHjz/H30eu8JDX8DUgBdUa/Dg8F0bwAovkgAD6KM3honsDAwnLuDgoO3l2nTp3PqlevPiV//vxXzE4N8f50njx5yuTNmzeqRYsWYdx71uy9ql3OoIDi6Jn4nAF1lfDw8McmTpw4NDUlpWxgHo38qQUKFtzXrFmzl2vVqjXbm+kULVr0UGJiYpnk5OTSZ86cGUofX3jTj7on+1JAAT0Tnu3+/ft7b9++/Znx48c3h3sXlSHhwElFihQ50KRJkzfg4rN8mQYa+JUAvY30AdAfRkn3pTK1+ULR7HevEt0z8Jkimt+5bt26dziHV2OYfBrAAwOTOVfvu6lly5cA+Hx/DI+kELZ169ZN9JUf8T0AU1sbwL/WH32rPrIHBRTQM+A5wr0HrF2z5s34+PhaGvMGfJqInj//ycZNmnzWqlUrv4vWbCjb4OqNBOglSpSYVq9evcEZsDTVZRalgBLd/fjgsGXX/3fJkq/+XLSoPd3mRYOu954M9/6lc+fOT6Eou+zHIa1dAe7FJ06caCRfXLhwoSsKvzKMdSYjxlJ9Zj0KiClHXT5SANG8yJ9//jn6l59+WnX0yJGbBeTGLgH5HDjs5IwCuYyFrf07/py3jFuCs/o9Pi5L3Z6NKKBEdx8f5uHDh1vNnTt3XPTFi3XyXtOiB1hE9QCdo/P/ZL4WW3dKieLFT2NGi8RGvrZAgQJnS5YsuRFuvJtNIN7HqQRs3LhxCZxcNpqAQoUKbUHR11wp5Xylava4XwHdh+c4f/78DziLP8G5uJB0YwH6JYAtdvGA0MqV154/dy40JTVVfi/ApyDKuGubAZsC5rUU/nmF7xLy5ct3JaRkydMhISHb8W7bhbvrBpR2+/m3afGbo0N/POt+oM8QPsl1atcZULJUSeUW68Mzzi63KqB78STRcpfEVDb/bFRUSw3g15RtARUqVlzWu3fvxzmnj46MjOxRunTpTXcNHXozYnSNkydPtuDT4eSJE3J+Lw7QCwF0DfU6+EUC0KUAXGDFYSaBdgkEq+yR8zb28t0lQ0ouz5M3z0W06rvspy6+76tXrz4ie4z8hqQwmyNDfy+WqG7JZhRQQPfwgSKqN5k4YcKvlxMT61kcXgToSQ0bNfqxW7duL8GB4+GsdWizHNAWAeyrBg0e3A+giuiuXfinNwb8bc6fP39TFH9TU1NL8HUx2lsVeABda6txfsu/+ZvMJ4avrxCimgjHPwL4D8oGUKxosR1sAKko4p5kQ7nTcu9pEd8Z+4SHy1TNsxkFFNA9eKCcgftNnTLlQ0T02nKbBeiXbuna9VU06l8Yu1q1atWj69au/ZTvCgL2pYC9lxHsxrYo84IBfdjFixdbANQWKSkpQSSUEA16foAOw9f83wvwNxcfiTkPBOgBfJL4v5zt08QBh7/sOXnL6X3LJsHYX5CU4mkPlqmaZkMKKKCbeKgp0TFFZixa+MKmjRsH0bwcQJfIslSAfq5tu3Zf9ezZ8yNH3cDVFxIv3oMze2qpkiX/vXPAgL7OwO7ofhRreeNi4yonpyQXZxPocPny5WoJCQlVaJsrNja2ioBdwM//C8lRgL/FAbrVpmeRBk42bNiwqTK1mXjQ2biJArqJh3to5LMrtx3c33pN/ZoSLJIfoIst/GL1mjWXDR8+fKSzLhDha0z+9de/ALp4xqVJHHn//v1v95eZjY0gH04yISnJKVVi42J7Iwl0ZmNpbeToIvaj4BsDV3/MxFJVk2xKAWVHN/Fgrxw73ih0/dbANrsOFKN5LJ/TfCIGDBgwytXtKNEOtmrd+j3aiOIsVs7ls2bNmgZA/eKoJBFuKOVOhZQMWccmMouY9LKO5sOxoD9jljexVNUkm1JAAd3Eg80XVCxcmpXbuKNQn0mzKzeMT4yHm+8CZJfc3d6uXbtfRGyn3Unh6pjbWq1YseIdd/eZ/R0AlyTk9YUNGzbMwOVWzGqnSFaxkU3goqGPcnjNOTxemB1HtcvaFFBAN/H8Qobc+bE0y3s1NaBQcnJAzd9mt2/z5U/Pnvnupxc4vwe766Jbt+5v0+YYnyg+gfv27h28dOnSV9zd5+73c2fPtUZBOB/bufQlID+BI84HBLW0q1ix4gv837oRYRLsw6bQ1F2f6vfsSQF1Rjf5XDmnT7wwedowR82LtGuzpUSvW6cUa9vq74INw3Y4akPQye18RqJCL8PvBVCUna5dp84MtPVfmZyCtRmALbx3796X0AHczRlcxPUkMsFuxEHmFRxk1ktDbOp5iGhbiumunfxfzup44S2oVKnSALzlrKY+T8dW7bMmBRTQPXhugH0SYL/b/pa8V//Lspy/aJGUgCaNdhdt1+qvApUqHCoQWulw4Xatl8g9U6dO/QTRvR7/LAbQE9HaR5ELbj5gn2x2GoC7JtFxT5HuuQZa9/wAOA47+pYGDRpITjmbzDJw/C5Hjh6RWHex0WtgZ7wHafeL2fFUu+xBAQV0D58jYP8VsEsWF+tlBLrx+zxXr1r/m6tK6IXkkBK5DxXIE5dUvUqCcOELdWttz1+gQFTdunVXc5Z3m10G2/wdiOBiXy8GyHPxuUQwy1JAvtjRMuDquXbs2DGDTLF36EBnU9hLPrr2cPVzHi5dNc/CFFBA9+LhRX742dunPvzsNf1WM0DX2wam/Qd++S6JTM55QysmF+jY7s+QOrU252ncYHXBBvU2BQYHR+v3kKGmMZ/miOHCmeWZ5RZlW+3atf8meWSEqyXA1ZvA1T/nviZ88tM2gpTRr6FInObF0tUtWZQCCuhePrhzk6fde2Tks+Pldh3o5T5667nAYkXPx6zZ0O7KH/MfTI0RS1z6yx7sqblyB+RLlboM/115g4Ku5m9Y/8i5EkGn+DYwd80ae7bUCD1WIiTkNCA9j8JtOX9NcWXO8/1xtOkL0MVrLolN4l9CZz/3cunqtixIAQV0Hx6aDnYDR79S8bvPHiw5dNCv0m3ijvB65xf+fcfluQuHXd6xq6Yzri7fBxrO+f+1u3b2T8117TEFpl37f8EObY8GVgk9mCe0Ynj+ju0W5AuteDBf5dCjzpaCuF8UH/0BAF186vMj8p8uV7bcHBR3pjYKH0ikbr1BKKCA7uODELCfHfX6uKS4eCstyz/ywNelR7/zhLFrzHBB0Qv+7HP64acm2nN0d0C3n2IeC+D173Nb/h/Yqf12NoD9bAD72QCWcATYzBFAEysQ/TvgRSdRbUUkIAZX2YNw9dU+Ll/dnkUooIDuhwcF5254tMcdqwF7Eb07OPsDcPZx9t2fGfHEeJR59+rflxg6aGrq0YhqKccial2OiAw2ttc5uFmgG9td1aWAoGIpuRs3PJBYs/qJxBLBiaXKlzsd1a7lErh7FDHvx/DeO+wHEqgubnAKKKD76QHF79zV4Hj3/gJ2LZ0zVwpgH2EPdm1TaN1luz5suQ/ffjb48Yc/0/8fv3JNu6tHj1VNPna8etKKNb1kA+Df4nprvZxxdEdAt19eimUDyFu5UsCVkBIRxXveOrtAw7A1eSpX2pu/UQOHPgB+IpHq5jpSQAHdj8QHxGH72nXbqXeJee1q2bFfyJl9vHGYg21u2Zm8fWeYfBfUtvWa8n//0dbdNNgA2rABVAP0VdkAusoGkHY0QpxvAnTR3ROgOxuP87+I/3vyN6i/HgvApiLt26xyNzf1+41PAQV0Pz8jzux3Rz76zCTp1mJHT66yaGZXAGOtoRb99dgnTr34+pf60LVO7AvmLC0JJTy+2ABapmzb2frSpKlPXd22o7LegS66O+PoZgbSlYAFQitG5W3UYEO+hvXXc/Zfxtl/h372N9OPanP9KaCAngHPALAPA+wTdYeZwKBiF6qvWdwUzbj4uwdcORZR4VC9FpH60KFTxt1euE/PP7ydStSo10YnffHt8/7g6MY+dKA7mhfgPwf4NwL+daL4K9Cg/vY8wUE+J7j0lgbqPtcUUEDPoDeEgJeRZ59/7Ru9+wIN6++psnBma8Cgce5dYS2P5T5y9Fput6GDJpb54Surgs7slFKjowufGXjfnNRlK7sY7yn66fuPx7/z0cfY8SUhZQBeeZcA5b9p0TEl+JS+vCPcaupzNZYroKfmTvfqpBSuWEE4/6aC7dv8jdi/DSlGafXNPswMbqeAnoEERsP+69nfZljdZUvdNWACgL5PhoQLf3p+zA/PyL8ByJnQfVscxpI7m17S9p21znbtuxwwlzWe0YN+/mZgsWFDZjD2j5cn/PaQfn/FMwdtjgdsEkUSd+5ukOtidEmA3/zKjl3oACLq8W9r3LqHQNeGEucfMR/KX66rssEVa9f679yNwjbzdxlSjcpfl4HvnLOuFdAzmOh7eg9cBsftqA+Dcu4elHOTLs1deFvEkPvn6t9XW/NPQ7TeVkWeq2nFTpoy7OJDj4+ljaS00pRxuYKDokstntOGPvbId/Tf+9yAe+bp/RT/6et72AA03YG7SzT/nPsbJ65c0w2lYUvMfqXs73HA0W2aWICebiikixMl27RcGtCk4Vqi/VYS7Wdqze7mrH53TQEF9Ax+Q8RR5mjPOzbgGSd12AI4ryehnGuWN7RSxIEKtaw+spjZnsTM5jZkFU79C5z6fuO0AU9kmekTugHy3fr3wrEjy9SI0/9f4N67JiFNeFW9BZ1CxcsrVndKXLm2S1z47iZXt+5o5C3Q7ckNPS7n69T+z6CeXWfD8f+F41t1Fxn8aHJU9wromfC4LQ41axGztUIPiLPbOa93YgNYC8esI98F9+q+qNz0CT2dTQfgBp++9faViNZhRjt6HsBd9u/ZbY1BMHofJ2/ttz55+aqb5P9sBqc5HlgzxPqybOZS9NK8RX0BfrcLC/66MyA6WtMFGC9nHN2+XQoJLo0XAT6nSvW8dVq+Dm3/De7d3SqR+DJfdS9SnyJCxlNAklGUGv32I/pIgLvR+VGvTSgaVk/SS2lX3LxFPZzNhPN4WESdFvsE5MY2+fr2musM5NIuf4c2f+rtsbmXBaBB/lgtm0pc4dt6CAiTHYHclzGSIyLLnfz+l6eO3vXg3D0VascfGvrQLLFiIBnZOA35MkZOvFcBPZOeupzLUcZZz8i4wfZBDLYBLufqPvbT4Tz+QGTLm7dcjY4ubfwNUXwCEkBfR5xcb4fHm9RMt14o37Rqq75e+AE8vr9+y/2sweYIQb9XcADaaOy/4gdvPl+wb6/pfCflpzy68DIszAZ4u5gqw0PrnSUXwPfR8/9MRyOPOs2hjRXQM/HBh4x+ZyQitGZLlwvObgPeS6vWdtZ/E1Gd8/jEs8Of+JnvbKqzBn3y3hO69t7V9At0aLPM+DuedTV8WS6SRQO8+rZjMfgKTm4zdwD+T5W1S5ojRSzUxyjRpuV69A6fVJ/806Cw+FN5K04d17f0/x4aAw0k9NbTKx8by8MH7n5oDqbJk+QEeB3dQSVPO8mp7RXQM/HJY0OPq/zd5+lSUelTuDxnwV3yb17g8pzHV8dPnGKToy43ceilfvxqGOD52sy0RcQ2tsN91uo5Z+Z+w6ZTBHB/fKxVly0o4hra3EuCjArffzEUN96uokHHTGeVGiSU1tiWM/dcovoeqx++vjwORI1LffzOE0XC6u73ZC7SNiHyRDkSf7y1vVGbo4j2c7ASWDdIT/vKKe0V0DP5SYvveMjIEdYgFuPwmLFKI6rfd6Jll82Xdu6S3HLWC5BHlf9rVmdMZFqsu9krb8d2Ww1t/0tuZ7ID5nMv+oGjiOvPcYsxH30q6/io1q71VZjTb3p30avXWU2J+MtvcTYMm8L2Mo8+9HWNNf/UDovYHUQA0LCit/Vwm07Lrr/cFwj93XPbwH8xY67lLP+AyWXluGYK6NfhkZd4+bm3AwypooxTOD3iyXHJdoUYOGvvB+S3mLWz24PBuF+YXS5ieiO09quYz3jmI6mkrReb1Urs/o3hzi8affThrG0R6YvrDfGOcwp0Y39IOrGSrAMRvz+gD67y2899iw4b/JPZuUq7+FVrWpHx52fE+ggAf58n9+aEtgro1+EpixtshQ/ffMrM0IB8C5r1m7wEuQxh5eJEvXV3N6aYzkRMRwG4TQOu4SK9VXTZH768GzG9A/PRiloYr6Tlq241/h//d6M04W5o7XehjYj41cd8OtzC6e+D01sdi9x1EnPydCUAP25bxx47lUj/H7UU0N29ORn0O+LuBPzCNS82ZxfiemLQp+897W1km6XfZEP/Lp83Wv++iOmH4776XsR045UW8spzL4fu3ShiutPU1BcX/j1QvwlfgX26X7+3JLRw+glw+r71dq6tUu7FZ14rVLGC1STpqF8psiGXhAFbRPoV5Arwi7XB23XcCPcpoF/Hp1D2o7f/52p4TGoFz+DPHlG7aQQa+AkA8XbxePNkyojP6wztbTNQWn4Q7bUmpg+89w/GLGnsX8Jrq+zdFBry6qgPXG042LmL6s4/cj9ebn95Mk93bSXyr+KLz7yLIq9C3XnT2xMI9KO7e+T3i2vWt9/RsecGsRSIl6KZe7JjGwX06/hUAdEyzFI2tm5H00FbXgkN/D0AcdbRsjUvnhp47zyJaQegWvSbq4s0VcZINZtc0xL9dv7d0a8er93scOKK1bZieuVKxytMG38bYnonM26pCfMW9jfOQzzb3M3N299FoYloP6LJ0V3BoR+8+Rhc3l06rHwHf5r4+NYmbfdhh7/d23Gz8n0K6Nf56RUZNuhbD6eQ58qcBb1jnnvly1O1mh6D25+SSDjOo+0d9UNYarDhe6vTiojpJ1reHB797sdS8NFGmx786vMvV1j/bwNi5OebnduleX8OsZEEiFQze6+37eRogOZ+DCbL+ymLtdZdP8kxcWV23/PwLExyC3Mad1e+7u7ejkz4HbCeEdOa/VCeJockgi2WTLArCt/WfSYuqr8jascjkq/D372l9I2pbWVJ7PDnhj/xExz8FvvxSCO1XH6Hgx/3ZNmApjABOtakE/jtzxWvPU/68KStBNmgD+gfv2pdpwtr1rUNuBgtm1k+R30k5w502HXeoKIXa379yYMo/jw16Xky1RumrQL6DfAoEJ9fP//eJ28Zp1K4Qf3D+LZXczQ9k8khkwl4OZSKqQ4/d42rEymWwosfxzncagLTNoDKlSJCPn73MTi4V0EkYms/8chT4/W54kBznygb/UVaOf+TKnsAhTE6X16+6mZxmKFvU++uM6Drcys28qEv6jz7xFtIB9H+mu+N2I8pYt2IE89Oc5Kz9tE6za2usbI2zsad5QyPPbt+CgkhAX1jzGO3wonbmwS6QxLpWWAtPyYhpr8R/NiIMcL9vaUpbrF7jIq4mif2B/uqcecs3ffKitVdYletvTU+fE915pYnOX1WG33KV0v06j6nSLtWy6iUk4B5zaqo4wz/wrkxPz6F2c1p5F6hBvX21/jmk8FFvDAHekuzzL5PAT2zKe5kPMCyC/dSqzecFIBw5uoqwS/x8/+8A7v1LXDr8t5mgcWd9iE4r/jSe32hG+hwvPvt1sSXiO1zENv7edqh9INXXee4Veu6JLGZObrfBujFg8+W6NltXkiPrn8UQR8g7sVy7kbhtgdRXgM1mvnxKO3uF4ng9Pc/PxUx+svXZcNw1Dei/CVE+fsQ5X/3dO5Zob0C+g3ylOzFd+zWb2PSesPd9CTQJGby9GFXxk9+HsWbtbnZLLCcy1eE4HOOA8x2d2M5+h0dwJaY1Wub6L8htg8z46YrJj3O2X05Z3chQq0X99sE7jgEY2jF0xKrXghXWWNWXb0tbrBL8ZDrpP8fM5wmFen/x57e5PhLb32HyU3TWTi6Qkc9+Q5mPNkQstWlgH6DPE7haIDGyhl5QTcgvjt9IR1NW9JHwekHA/qhZoFu6SetyD1DJhR/5bk3UMS5rM5qHFdzsBly/x/G71yJ7ZayVP3OTpn5AOm1Osh99okn7NdF0Msh3GG/Ju3Uv67SThHN9jKBLu/p96OFX1V3/nSHkgGJO5+MGP3FO2jh9WIbNsOWGXLnFCQBLcAou1wK6DfQk9xfsLTVXRWgbwToWnYYsxd28WJEvW0gv3ttD4GuDYEnXnSxx4Z/wZn9M/vIN/s5SBILzHP7LkWe0IpIyOVMbCfDTuPYb354mmw0fcmyY+O04gjo4vLKeXsxVWTmmtl42CRb4wW3jClYNe/23Nx+/kgUVQ+NfG463L25/W/JgbkDgurV2Rc2Z2qr7KKkU0A3i6JMaCfeaUb/8lqJUaafjwXkqwB5A5mqN0DXlwjgY0I+fvtpRPB0teP0Nhw13oz64FObo4W92C7RZFcmTBl5Yc36ps7IZwF6moCbvHGzZLPwRJEnUsK+drduRxNvDcGFm6+Gm7cz88jg7s/C3d+Du0vteO0SoMsF2PcD9pbZAeymXyQzRFNtfKMAbq7jYiZNvU/vxSzQxa58dsC9CwC5NVbcHuiY2k7iDrsSD7tBZmcpUXP42j9sPOfKvegFGh4mAYV9P4jtYra7GvPN2KdOT515P4rCKq7GIgHFyZIjh78XMmTAZE/AbewT55e5hKreZvwObn4zc15qdp3C3XGkWZiwc7eWv08HugXsewG75OOPNtvfjdhOecbdQE+FcsdHPJ2O5JOLatFpixHk0gc2cxu/dkC+lKw0gyvt21ypUJ+epqLBiImvhZSxVPLT6z728vf4o09PsZ8nrrwHyYP384H6Nx2C07/lCuSk1JpKJtyO4reOZ9u33oJcimTYgxwz21xPQC7r4HhwpPHyRXVRxL1tv66Y3XvrhPcdvB7JIdjTZ3MjtVcc/QZ6GuJ3juOMuKRqlzuOLiCniMMytO028eL57hv689XomOq4ynbS+yL91FOY677U/88RoWPsO6M/xC7fyhkJjAUcCFE9jzj/EplfOyB13O1pumc2niulH33wfRRr48ycu909Fs799cM7dJcwWKO2/mqj7Wuq+tK/0GXPPSPmJ8RfsgkeQozP0pzdoU3RHZHV7xlDAfFQM9uzFFkA5HNRbhU3imWUYxoOoH+KLF3NRtSEo9vEhlvMU61Fc37++VfHEDhTwdXYknyCJBQ/mJ2f3g7x/HiFhx/4tMiwweM1zv3qKE+7SNdeMsJyLl9kB/IAwljf8gXkMpDQBVE+DFH+L7h5bX1wC2dfx9hZUkGnRHefXzv/dRAYdK0um+WyiTQzjoLL6T3nb+mzTEBuBVRwUBLlmAYLyNkEWtlrt3mBVziaKW6vc8j3XhHnmXtQwiX5azVy/qYqzTDE81CRJLwVzx3N59jIZ39F+WaTGFLi1Ms+8qBVYvFlHRISKxr30i1b2GyOAnzE+DVZUYxXQPfljfDzvXZ52x3md5OccpRjEj9ya7QGwSwxlGNqhpZ8mkwpYd4im5BRCWZxN1Up10RiidK4xL4J4L12h+WsvrzctAm95fwt6aHcjevp747O5dJHhQ/fGunPzUSUb2jum1Yc2N/GUw6w1z32ytseSzaertPf7RXQ/U1R3/ozPo90YVfEoD9J+udfjEOgTQ8vvXFZAzzbdunf69lk9f/jSTbDzLSk5jneeG8B+Ep4zO0wc4+xTemXnh0t8eu4kS7w9F4z7TmX14t46c0v7Nvi6vorY/5hpg9P2+A4MwCwzzTeFzl91oDw19753NO+rmd7BfTrSX27sVMiIqvqX1F/3CZlkpjeOEvLS25VoMKpV5BPrp0xrJTzZelcR47ZnLcLdmhj9bhzt1xJRnFu1Oufo6SzTevs7kZ+R9s+is3oKRNNPW4i9nLEZjGZ2eiVSMe1t/J7rz/ucYce3ADY77Tn7OepJoOfwAgPurmuTRXQryv5bQcnG0xd/Zs8nBP1f0thRezf9xlbU6nlZ7hnR/v0TglzF1nztkl7OSvD7U1xZ7T+r5EzLtJ+LE9IdOrF1z9nvqaqtnrSL3Xq1hGsYhuzXzw4tvbXHw/JDBu3hbNLxRnrdeTVd0aL/7wn67hebRXQrxflHYybguOG4es0S7WWHwHe/Ybvr2IqG4lN3Fr73NgVpY5tMr0We+xhq/+3s6VKdhqSX0SSbeZtYtWDfSUJFVXuJt3V3/5SWlGKaSKhqpozi/GqO/GH/vi/b/N1vmbvB+yD4OzWTQwTXNDBx56blBWy1Sigm33KmdDOmGUGc9hB/NZXAXIroFGSnS1L5ha02E7TT6X8MV8iwaxXoT49/nA2dYmDxyFmJQkoV7gzrxn74Fhxzh05zi/8uytc2GcNteRoj5s01aZijYxddcynj2BJWOJuHv7+HbDfYwQ7yrn6ez/9Kp2jjb/H9bU/BXRfKein++GqbejKev7mrHsPWvj6eveA/DRFHDq5yuOGTdwG5FRb/Z3ze7r0yOLdhpj+Ckkhj3EWN+UTrs8DcK3DHFeq0p+zOxWuWCHK1fKpCV8XsHvtVSYRfRRYTOdvj738EzT6Y/1Eeo+7sQc75/XHSZRxh8cdZeINCuiZSGxXQ1EAUbKoOLzwOd+FJrwOZ+3drvqI/XWajThP7rh0+dAsJZYiENPfddQXG8olxnMIYLzjYstMH68dDcSxBMCXQdP+phuw15LztadiPNJG5eOD70+XnBIN++/Eiz9/vR+bBexTLfPIdeDx576TBBfXe17OxldAv0GeDKKzw/xw+KVPQ7Peyl0RB4BRFrG9n74cXE4DjDXRJBAFMX0t5rnx9jnj5B4AHoAN/aUK65eEXYmIDHZEllIzJvS2n4eY46ii2hjt9z5npISz18YP3nSJJTnzRgx54G/KJtsAB5DPEqXY9XxkkjADSeNm+ZDdZn6hIoW1zLqc10shwjvcPK/nfPWxla/7jfAUmAMgXCNx1cbpwEHjxKbtDuRyD5run0g48aB+f6HXX3hZii5IiSXMZZ9dnvCbxu3tcsZpzUk68SNJJ94UMR8l2qwECkXI90ZfdzLevEF/Ls+ipJ3+5vyYH0Zeu9eWh0g4avlHHvieFFmPuiM5EWnzyDrTW28nKaSKEzJaZeFMiSK74O5+b3+XowL35iKllSSsyENaKykxlQdpq8q5M1Hi+y5OTGLek8VJ0JA1tNUy5tVm/85vRu65bd7OIaPuU0DPKMp62K8x6YR+q6R7FgUcIHwLBdwYZ13CresRwWZ1mJF2ZQ5srYqprU/8Ox+9bXSHNQIdpxhJ/3yXXqBBXGdRzFnzo+tAR0xfjynPafCLcV6cVfucevjJqYxZ0NF8cYsdzvnaKXeXzeLk979om4V+kWVmnwXkFz0ka7rmmMMakGyzWnz47iZJx09Uv3LseA2ST9iszRim6mI8cVFOgqMnF6lfb39REmUUqFThEBVqFvvqb+/rGh3dr4CeEVT1sE+AWpfa4+nO38a87nDdcSVHv/2ko8wvSAOrSc0kyjztSqta+RJ/EggVLWU/FQE6Z/A9ljhzq2ssnL8gGWP2c4SoqN8jQLdIFaGMG212WXiwNSL98++I7DXs7+FIkUSIahvMYukqraJhH4bybaIdyA8D8uZwco9BLhz6UvjuhpjmmgHomgBaJCa3x1VnQCeCbWfRsHqb81eqcDi4batlFJHcyLwum6XL9WyngH49qW8ZGw37SOFk6UABRzdeADSc83pbcVXVv0fTftuFO4eliy93lGEG55nTnMOfd5S8kfE/o7ji08bxBOiV1y0R99p0lVPdkU2UbyjhNgB2Y0ko7TYKMB4AvC2MvukSjXew1wAbn3w4+THaNTEDcguomwLqpnHhu5uSflqzWLjL6+5oHQA9jYCWNalNGqwsW6dWeIHQSkeQata4W/ON/LsC+g3wdDgXz+FM2scd0K+BJGwfYG8G2C/BhfNRlimKePR0xQONQBfFXMEnHnmdM7Y11t04lqSvQmRfZT8+EW2mMrq6IiG6gylnf5sx2L5Nwb695lElVVszEkDY0R53rEf5VkhvB8j3API2jrzeJAcdSTGaUNChI6BuAqglTbbDkGszQC/epuUKQL0GUO+Gvts5Y5vyJLwBXh3TU1BAN02qjGu4p3CZlMCraVoQC84oCYSrnuFFruqsJBNi/C94xj0IF/4o8cvvRrnK617ktVGvkezxG2eityXJ4y57hxnGmMgY9/pj1ZKhBrAPTbeRfPzOU6SRGi+ONXBia057QH4EkDcTTi6SQfyqtZ05UzeXnO/xu3bXxRW2mNl52QOdYg27Eb83MMbmwmH1tsOp3Ub2mR3rRm6ngH6dn46kaCZl8jyArs0ErfSTKN6+ErfUmGdf+QGnmXSun1KphYCWtdRU07T0joBOlpmJKPFec6cYAoS/4X1nUyARrnagwoaltfxJGsaZDNjTpVCWOuqA3JrgQcZEOz8x7lJCIOWXOiVHRJbnK+09dVGpxfFUiwdfKtGm1T/5G9TbyJl6JWfq7f4MZfUnfTK6LwX0jKawm/4lKg3f8Pt0oFc/tT/YaE6zBLQYfd0DXJVkosjilmKvjXraWaIJ43Sk4gulmOcYvwPkBzkatPBE+WaWhLIWwG6zFnd53Y19uwM6tvwd5Vs2X5a7UdgGtN/LzZR7Njv3rN5OAf06PkHE0kIkUzwZQI50AXrQsME/IC4/bD8le7A7Ajqa9ogSP30zzAzApX/xcz/Rsks4zjNWpxRMebE4zDRwJwV4SzLxdjvQa8AmrAEl9T58ATppnZdi1loCt14Bt96RU7m1meehgG6GShnUxliFVIBeZe+mys5ARnTZOc7RWhJIe6BzDv8ARdvLZqcp53ICZjZxLLCav8T1FV/6Vt5o2F2NK4qzpOWru52bMuNe8X23b2sW6MkhxS8ihq+gsMM/nK23saGlUx6aXX9ObKeSQ17Hpx4/adr/9OElRbEjkEsAStSIJ3/FW80m06tx2saEFWaWg6fcN0aQyz2AvI2/QA64G8b9Ou3Bs9QwP9Smq9Uub2Zuepv8RYuk5evUngKKrf6hHNNq7O7bA45g5Zts2pPWk+GyfVvF0a/TIxaf6UP1WlizvlZb80+YMR2UTEtcYinMMBfx2irqOuLooowrH3XI5mzvbFlErb1BQMubxt8lMaTkjPOFFGIis4B7SO4jR8vYu8A661vn6AA7CWAvklJMAHulqzprvswzp96rOPp1evIX3/vEGgBBsMZYe5BjOvsE2/azZqcXN2naA7R1mceMo8LdBLXYg/xeb0EueeWp5Ho/OeqGHW3dRfPCc+t2ZlgQisMlwdfO2Ks0M9dk4mIUxzb7yD1qpzi6R+TyT2MpoQQ3P671FhycUn3N4lDE9lPyXwHPueFPTMOOXs+ZHZ387xdQaJXQZyMcHWXcWcJGbVMtGaZLv/XJA785Kfa/GmN4yTl1onG2Uol5p2LrIGqz96bAojXdtH17RxxdTGlowxfm69D2H5I5LvQPNVUvigI3KAXEpIaTTJp8JAGEPk1cYR87UrZmvAS4yOdQgVLpPidu6rxbUkzxd8+x/CXT5HM8X4j2kSojjpYsQS8UdIiVtnqfzGG8WfKIrZ/2E4xz0+fv7G94kXJpeyrUTpX78GG/SzY3s+Opdv6ngOLo/qepyx6NZ3MytJwtv35pzVxEP6Jw+wU3WJt87PYcXQosYP6qJuGkAt7TN3XWItZ0hxmcZH7FPGeTdkkvb4wEoJU3lqAWYtznl5s+waYwof2kpYILnHsAEXD9qdKSLhLNWUkmbNknKHc8mTF+0xRo6rohKKCAnsmPQZI/xKxeq4VFhk4ZJz7glyMeffqHwAsXbcRuzqzHSfNkU42kzOI5bY3BFZzjP8YF9jkd6BRyuFox6rA1H7zFjLYxZftOa2AJeeCP4BDTxD7GXeLWL69Y0wlw3wm4+6IADDLGo6cTzYkR1y4SViS3b3WgTMf2M3Fn/Tgj48Uz+VFlq+EU0DPxcRKr3TtyMO6uaVcD4HwXOK/+RaIGzf1U94wT+3CRYYN+O//8698CNuvsHAWYCDgJarlIUIsV3CV+n9SLvHIL+S0vtvKdgNzqXgrIJSCmpQ5y2hS4NG/RoEvz/hyE+a5HOjDD/R1duZs0jM5VtUoM9cwnRjVpsCJ37txpQUFBx8qVK3cwE8mphvKAAkrr7gGxfGkq+cQoDGjN3orzS4nz23dafcyJ+w6gWunQwrf1WEhceDjisrXmUtEnHvnCUWipxKZzBp5IZhmrW6lwZOa5UGzlRpATwZZCKigBcwra97sA98CjZWtK9JipzZ4NaAcVX6aQVXZycsmQ6GPHjrUgsZwo4yQFVu7k5GRx1ldA9+UlycB7TT3kDBw/x3SNmP1F1Lc/Palxbzi68QoZOeLDkJef/UBABxdei8Zd8yCTMzpRZJM4d9/jjFCcpXsSj24tgYT4HpC3X+/fSB1lE0BS8MlHp1AgohScu7N0bYbwnLOXkmByMpvPTHvf9927d0vG2RbygaMXKFSo0ILQ0NDPzPSr2mQ+BRTQM4HmiOy3IbJbk0PoQEd831zh+y+GorTahxhd7EjPO5de3bqjqT4lSa1MCiebPHKOpisad/vvHSWekDaOcsYZ7wXcqwH3r4B7GuB2mtUFoD/BfZKjrgFAl/doVe3atTvnypVLS5aorhuLAkp0z+DnIcEjuIFOsBkmODiZ3ORPEI76fUDDsACpd2YP8sIN6u8ntXIPUXa5u3A8WWNMJeWuvf3vgHs74J4AuMdpnHu67XSd9CcbkrE+W2WLpKCA7ukDyIT2njgyZcJ0st8QpC1eaKxjXuquAT/V3LWhlAZyLvFlB+TLjZwckO+xKM2i3VFEUkmhjPPYRh3Xsnl0kc8/+KbK6QOlMbU1RgfwudnQ1LS0NOHg9imiCribq/r9+lFAcfQMpD3n8i85l2u5y1CGxVaaOq6HZh774SttVBR0BY/0vGMFqZCa6IfmopyHS//w5YOuUjyLth2X1wdjvxk76tyAe8o5SjzhaFlo3S/Fdbv5j1MdWq0qWLBg4gGMY0mxsVI44qwXZLBPPJn7ypUrEvKa5EVf6pYMpoA6o2cQgfEGu/f0w0+N17uvOHVcL6PbpxRcgNsvAOTamdxVPLreB/eUjx7z47No2UcgJUiece1ylUpK8sUldb15R6X3X78dR5vD0v7w4cONT548KXnT6+TJk6dIsWLF9lWvXv3TfPnyneWMne6874hEnNElYaS2iXFGlz8XKlWq1KJw4cLaGOq6sSigOHoGPA9LssNrbJur3ItPv24EOb/X5ty+koQTVq5ICqlHEOcd1hMT/3cBOLXS7pP+7OPRHS2BVFNRF1o223725nZ/YOOOrG4BubStVq3atnNnz109eOignLGbxcbGdt6xY0fvmjVrfoJYPhWwJ7ojC+COvnrVxnogG4Q6Croj3HX6XQHdz4SXckLYyxcmx8UXE+KS7XSmMfsqnH4wGU/HAPJrQSkEtVT48M2hnJFtam/LT5I3Lvad0aMjW95sqniCmNZwg/0heOTwdyNTU0LOHjvWhW5C+UhVEZurZKmSO5KSkp7eu3fvz4mJibekpqbWO3DgwC9sCsNT0tJuy5Mr13lXpIH7n7582SaluQBdSYh+fp/81Z3agf1FSfoRkEv1UBIaaq6rRGvtqTzmU6szi7isIs5PMYA8gGIGDexBLjnOpUSTlDPGDdYtyCVPXNDP3zyI+2suJIOHEdElMk7KBYnCrBkf0Yinu/Lnz3+iYcOG/UqXLi1q9hhpEBMT03rXjh2ro6OjpRyRqyvZ7kfZTNJtKH4kr+rKBwoooPtAPPtbj73y9ud6RlMSKQRgI78T3+84ztblDra5ZQeKuef0e7Chb0X7HoQNfa/+HR5rw4hK2yc1y+3rsNmPJWfvAvfeNbnc/i2h2NqbsVn8YtdGfOdFNJc0yk7DVxHTLyPKP1inTp27AwMDtSAUlGq1OcePj4iIeBVR3tk7Yuv1w21yqx/JqbryIwUU0P1ETLj113GTplq5d7mxX3YDxLtxlrmV8/he8qU10Ici0cT35C1vzyYQiwY9D+Gp/yMn3KnTI56ciFecyzTLZGk9Xvynr+8F4MF4zN1t4d6OVlGWLyUnnGSncZsHPTg4eH79+vX7oEybJYydT7lz5869vm/fvtmXLl2yzt0wkD33Fm27PZf3E3VVN75SQAHdVwpyP+fuuykM+JjeVcmXnx1VpF3rdYD/fTzi/kJDrgMtpeIHbw4HoI9ejYkpQiz6qP31W0adevH1MZcjIgWYDi8paYwr7MyK6/9tTL71ULj3RBMVVgXgouzLx8eqoXe1XET5iHr16t1RpkwZccc9xCdvQkJCH7j7DJR3g+zutdfOy4Fdie5+eJ8yoguljPORqpJUgcKA1nxr2MFnhPS8dREKua3EgFtrnosdHS4/KH9oxcMEonxHhplH3A19uUa15EovPPU0Hmu/ae6oFvu7u/vk97i4OM30Zbk8UpLhs/4RZ/SlBK58jpKuDdr12idOnhgD4NuFVq36Ijb/lCNHjsgGYryEo9uL82amqtpkAgUU0H0gMmayOuF9B3+Z19IHZX5OFa1Q7uy+dt028FVBnbgo5U6RjGFSwlffvxq5Zn0zfN1depEl3NQsNk+HNlv2N6n/T9Hmzf8q5sLn3Nn0Aag1XzttTNnGjX0hym9A+97p8IEDY9DKS0KMEDaPB/bv2RNWvnz5X4oVLRZjp3VXrq8+vEsZfasCupcUtoD8X+qAWTO0oogrx8eawlnvmpDUcqc+/HyUZDx1RvDUEsWxtz/zcdFhgz5aGx5+y6lTpzrDOevhmCL1z17zYprGobzitJjY5Mw9grmsjIqKepp/12cD6XT8+PF2iPn2S/F4M/FiTeoWLymgzuheEM4C8qWAvJyZ2zmja83y2DqYBEgCxatVqwRsvXfg5v3fjn4Oh5lRiOjn69SuI8UJxDW1K2fk2wDaTWbGMbbhPuuZv0CBApGe3m9sT0KJSTVq1BiUN2/eZXwvm0aelJR0DFzeJY+OCL7MSd3rGQUUR/eMXlLity7i+jJA7tRk5bZLiUhr0ihgVa/OS4OCg8+AjhhMXJv0+3BmObFw4cJkRGNRppXavn37+5i5bsUUZpozI26Xwr1V6xKg49bu24U2/gCi/F2I8qtwtElX+JHe5QSjGIdvZM6wu9WD8YC04hADyJd7C/JcVUIJT336l1LbVlcJv3fAt0WLFhWnFjGnlQboq41Twa49mf9rbBPu3AVx2SZxpKtpo0gThx2jSe2SB8t02BRwlzp5/Phj/LUpJmForIDuK5Ez8H4FdJPEtYB8DSC3j9py2wMATyo79ouR9cPX58Md9kE02A2uJCU150bRjJcnGOQAHNNGFq5QocICHFisIje+6KMBmdM86sZJpCSniHutroy7guJso9tJOmkAFw/k6HDP/v37p1y8eFGKRMjm5MheLuKDEt29JXQG36eAboLAFpCvJdJMvMxMX7imbsXFtTMAL1By6CAtXxxgzYOCTSqmCsiD5Cu02P/Yd4qyK5ogky/171GCVQVsj5sZPDYuVtxm9WebkCdvHpd+6876xHbeE3fYZSji3sfE1ph2iWw+K9mYRjo4DiiQm3k416mNArobwltAvg6Qp6sE6uzW/B3abqmxYEbnuvOnNyX+fJmxHbbpLslXrjTiu8LyPefoKMT2xY76InT0B4JH9ui/Ycd+Bu7a3t27cv78eWNG1zhiz0+7u8f4O6J/y507dy6OOB4xhQ2mHb/JMeAAPvHv1apb904CX8RvwD5nu7i/mtYheDIf1dZ3Ciigu6ChFFvgTC4gd6R8Sndn0WGDf6u96q9GALyZPcD1xuHh4WKm0vO1pwJmcTl1eMHVE2rVqiVearqoHLR169ZJANGlm2x8fLw1xTOa8rP0YxNm5mw8XF1rEM02hSi2P8nqeosF4FHcP1O07qJ9x+SWKP7x/BZv108Cm5bPugDfX2nVgyMKKKA7eS/iqX22vVPPrQk7d7sFuQC83s61odXHfCqJHnc4e9XQng+Lj4tra/j9JAkVtZRSzi6APql48eJ/678DwMqA/Vdn53U2gRqYvrSqLHKRnfWIu1efvsoiLXzKkWI1TjFSVCKYT4qI6aGVQu9CMXg/OoQIN/0ksCEooLsj9nX6XQHdAeEBed09fQatTI6Jc1qTXG4r0av76kbb12gAdxFcoo0AmAoBJOHmVr/z0mXKrAFA0e6e/U033TQM0O3X28F5W2zcuHGGJXebze0kkZCNRM7+2lWkSJGtzvoXTToRai+xcazjHP4M7XST4RE8494C4L0w9S1xNz/L7yqgxSShrkczZUe3o7pwckC+ApBfSwzh4Ipo2ST6YOe2fz/19NP35jMpFu/atesBzuZNDN3Fw82tWWhcPXw2g4soxu5YvWa1cHbNSQfO3QVN/Nf80xpMI9+jGb+ZP/oGHosJz2qf18eQDeL06dP3APDX+c7qj8+/z9F+btmyZUcDdGoYe3SpgBaPyJW5jRXQjcjbuSsMkC9zxskBeMDedjcF4OQSgSYt3uzZF85Z5PcZM4RjWq+ChQrtInhkjdnHDWcNh/uOAJy/cY9mOsO2PpLjwNVGjRpJjnXtunDhgiSa0K9Y8sHZHCXYMG7etGnTp8ypsTSyONUkovTbilLwKQBu1hRn7/KqfN3NPszr0E6J7haiE4U2zJm4DsAT/n724YDjPboEFC6qYaxy/gIFxJ5s6kLMfolkDlUNjZMaN27ssf86G8N8wChmOquYfOLEiccA+xfCpQFxU+P5nHapnNHPyLhIAGG0m7133965Osjle0k2Ubly5aFNmzZt6wHI5VYbcxobhVbfXV03JgUUR+e5SDz5/sdHjeefNhtf8TYtDxMm+uiJ0ycGFD5xQsoR6+AOCgkJMcXBAF+tefPmjjA+/iJFi+50ZlJz95o0aNDgRQBbCG4uYa7ijZYLsI+Qailo2CWpo9VzDTNYDF51ddEN/A9J4E5+K00bfYhjbByfEHs+CclESyPl4WUDdCQDr2z1Ho6pmntJgRwP9DPf/fQkIP/UCHIAvh2AP1O4Xeulkv54xowZAhIrQiy0dpu1Rdpt2LjhYyP4+HdyWFjY+14+L+02EdVFZAfsEikn8yoI2DXxHQ5t7RopouGGDRvkeGCc66kSJUrMwaz3GgA/58M87N8dlUbKB2Jm9K05WnQ/NPLZ8Xtff+8LwUdyYO6AoPJlExrOmdIJO3hj7OD/GnKcS/y4Pa3sEy+ke1aYrLqfOX3aJski3HwHJrPZvj5YwP4U3HiGq34IbJGfdZBfAOAz2WS6k0XmUR9BLv0a15+GpKBEd18fagbenyOBjrdb8KGhDy2KnD5LYr0F4DH1v/jwflxVCwPw5Q7o7QjULiuScg4uvH79+s/py5hk4jJAe8dfz5MMrs/g9eYWYLTZiqnsPtoP4Bzu1M7v4bw0zz7LdTlvHgV0D+mXqc1znOguIMfbbU3M7r11CxUpnFzu4Qc+qPjiM28EDLVPiWbzHBwB3aVvN+a0/+GhViePQZRGW78Wbj7HH0+Ys38Dzt2vwrVdxsRjR48E4HeiLDtitgqLu/mJ4m/Pnj1G5aIjTzl33ajfM5ECOQro2MibkMttdcyZqILVn338rbKPPPgFmVij3dEb2/IJB22cSkNouCtwrremdrbcG4vji42Jzd24jn4H4A3RnL+7bv26lvxe2lIOyWlXbDYVsbf/grh+H42OejOmk7UbOboEznjkT++neahuTFIgx4ju5Em/FfPZlgId281vvWl5KFz8TTMgFzo6ch4hcMToaGJD7lWrVv0oIDR+WbFSpfn4im8z+VzSNcOG3mfp0qUrcJpZwUZym33/rvoF7B1FKUf025tmQ11d9YcmX6q3FjK0ucQZ/YK3a1P3ZTwFcgTQMZ+9evyjLybUnfhDN9xVB7pzV7UnO0osiSCzqUeWdPlyCIBLV64YBVw3yfdm10dUmzZtrE4tZh8rrq7l0K6/M3/+/MOI6TNwb5XINat7q7N+OJNHYv4TLzqjVr0cbq5vYNPfzPzEn92XSzT9xuNMAv9XLrC+UDSD7832onv4a+9s+Xv1quS+08bVxpU01ht64lCygvvE1lzQcH8QFUkl7vt3/Tu4Zf5Zs2Z9xv9tsrw2atz4Y8Y2ZWcWcGMq60k464N//fWXRKlp/vZGs5llPK1gApy0CIEuxmVdwT7+OjHjkyiv1ICN5y3+Sg22QtKO9lUPHTo0mTDUQbR5C2llm6c0SUxIlHx2Roehy9jR7aPZPO1Wtc9ACmRroAO6T39dt67YiOeeHugtyIX2mKKSJ//66/Gz584ZiyzkOnr0aB8j0DkLj0RMtolbL1CwYDgVUL5z9QwRy7tQFeUWNo5e5IoTKSGYTy4H4Ba3UwkbPQhIp/JZAmAX4PZqVIxFYnabh+JNHHokoKUPHLwXG8dLKO7EPVYzFQL+fnw6c/8q+nkX55r1Hijr5HxufHeSmJOqi56BQPW162wLdJRhP2zetKlPg4YNZ+CFtsVXQpWvUGEpQG9h7OfwoUM9EN/LwhVPiwJu6pQpLwXmyWPUxie0bNnyOfvwTbh2SYDX58yZMz0ILmm3evVqSRGlcUg9oaPdfKMlrRSShYD7N8bTQk9RzLUC5DY53AhImW1vI0c3sIDmCwB8z8jIyFFIHpLGSsAaxFx6EYPemY1wFf19HVwy5B9izl3GryckJkimHat5EYWgN551vj4Sdb8HFMiWQAfkv27bunVgoYIF9/W7/fZRHtDDadMGYQ2+57w8nAbGvG3FSNLQl+/GLl++/Av+2oAOgK2vWrWqFksO124PsCUn+h0zf/+9CsDVztq5DeY3u8Ev0uYUaab+rlix4lTpy35y1DeXsFdjoYbTbAQ/OFsEfSzkt4UWwL9s8XkXwBcC8LceOXqkXeDxiGOI+3+jl5gBl18Hl08XlYY/vZ44QxuKtFLWEFp/0Fr14X8KZLs8Xyiuvlm7Zs1ISBU/9O6778CsZE3a4Cv5xv3yy86Y2Ngwo22c4JYT7du3f2LZ0qVjBehwdOsw+KV/SSKHSpHHj3fgy2IA16rA0sVyA9AlDdN5THkRiN4rLOCWii8OL7hvE0xsy+CmmuebmNmwmS9u166du3LH1v7oo3PU2agRKPkkXVRF41GBf8dLDDxJL+YSAfcvoNcj7fKRJWctv0k6LO1i3DfRC7zlK33V/RlHgWwFdDTKj8ycMeM7ARsA/w2gD/Un6bZs2fLgihUrvgXoNg40iNui5NMAJ2OnUtxAB7xxU7ADkjS/DNDPAaadZH2dBzdeiFh+zMyc161bN5tzfT/djs7fBNY8EMCJmO7RBTeviLRxL8ePPuSIk5rqxe3mepr+IwH7KkAfjlTyJb/rdvSE0qVK300Yrc9uvR5NWjX2iALZBugolQZMnjRpIqsvgALs9POjRnmtZXdGQUTdAt99991hwKt5o8l5WiqWGM/VRo6utTGI5hbwSLql6EqhoUs4c0+De6+VxBKePDU4cTO4uVgCCulAR5se3qFDh5s4n9uYAT3pVzzeUNC1xAw3HMVdQ0BfmfuDmbc1oIfxRCFoVBSe5XjRnQ3KZz2IJ3NVbT2jQLY4o3PmrDf2+++/EZDzSenVu/cLvmjZnZFQEk1wNFh/9MiRftLGQVki7VYjR+e/AoxoXFDPVq5SZS4cVz4rPXtMtq3xjJOEkUaHlQA2je99AbmMYNG6r+Of6wB9HkDfBLH+ZiwJN2OaE1OiSC32zCGWTSbKl/WoezOeAlke6IidQT/++OPvlxMTNU+06jVrLmnRooVwdr9cwsXRkN+MgmoAAO968ODB8jqX1jm6/UBwdTFtxYmfOcq4mYBwji9eccb+Ea/r4XnX2m7Mk4j+0/2yYEsnFvPcRgC/DW3cL1Rp+ZY0VRKua39dYFO1Fprw5xxUX/6jQJYH+j///PPe6ZMnddv15S5durzhK3mQEBpjhroFUA/4+quvaufJm9febqwN4YijA+7TpEb+vGqVqvM5t+72dS7297Ph2CSYlN8B+QzAdtbfY7GJVuI83g+A96Nvhy6/aNw9zS3n72mq/kxQIEsDHd/tmxHZR+S1aLqrVK36LzbzdGYoE3QIwJbch5e6x6GDB3tOnDChDOdSt6miHHF0vosjWmysl1lbXE4V4JVnY7vdzpHmBBuLiPJ+ueScfv7c+VsuXLzQe9++fY3ptADjSVKJ0ygNdyDGi8LOOhbrdRTw45e5qE78R4EsC3Re+qJffPaZmLR0RVH8rd26mc7DhghcXkRyNosh+/fubTPnjz/EHu00xjwlOTkNzi7eX1b3VkccnX5rLliwQPKy9Qbscf57VAEBAO8V+jOmoL5apUqVr+HmWl44Xy5qrOU/S2ZYvPvuJzNNDcAt6xS31qMAfAZKwzmstwrndinsYNUPFCpYaJsv46p7M4cCWRboK1eufObCxYs1dDLBzZe784BDJG+I08tDcO7OY77+Wpw+3AWIJCKaRpcpW3Ynpq+/0S6Dgx0fclZvKuM6O6MT2dZh8eLFU2nSy1+PUUxgcPOBxv7YSHaTEkqUkF5fbEhl8K1/cuumTQPoRLTssnEKy5bc7gs5FnyKIvG4DBAXGycedcZAqOiChQoqbbvX1M+8G7Mk0DEvVfjgg/efMpApCW7+tj3ZAEcxuGB/fNJ7H9i/vzNivnBtTQLQxX3DPfJyx2MrPkVhhe0A+1+cVtaiRNuptyHJ4l2c2xvoyjjh6NiVjxG2KRVWbbTg4n1GWOl3nTt3ftQfj5N1SA52o+ddKkq+b7ytjoLk0QL328eJiutEv5qnm+VIcITItxkA/CsAflL3fxeRnuKNkjPeGLBzhiyzPtde9wd9VB+uKZAlgb5i5QpRSAXrS8Ob7AzcXPMiA2C1ic7qQgaUwe+/915jvipqyHxqpIamGSfry3mkgWUAexnAWQoXO+mIZFJzHF/2T/SNQtoA8k2DBg/ufOTIkVvxjBNNvzEZQwCbwiNoyC/jrSbz9fpiY2tOHLoNN0eaOMR8f/WkU8CaG3APgEaP4d0mtCli8QEQr7xjAHwqAP+SzcPRUSAQL79bjIkukHZ2eBAI48lUVVs/UyDLAR0uXRgAS+pl61WtRo2t+LePJcjk5i8//7wK5i1H6xJgxxP0cRRgL+Fs+y/gNu2ssmD+/JmXk5KsaZtwfT3es2evIYBCzrGz4N4d9u3d+6RMymhHR5J4CrAHAnaP49H1Be4M3ynlk43HjBTm/61Zbi7iOZ5vQ8hhNxwpxD7E9DBVUscB8O/oz2koLVKLbAw2aauIezddgMLP763qzkMKZDmg4wF32+XLlzWbuYjfyYjP27dulcAS+0tE8Rg00jsF2HA/OcOLN5nHF+6mT/AxRq5dbtu27TOYzw7qnSGiPwXY88LF/2fvHQfYH58zZ07j7t2797RsDKbnwHHhRSwCbYyadvaxA9jnf3HXCZtiFQA+DNfgh3B4CdVo9l9e9wgAPh26fOgK4PoYOM5IMg1jAE0CQF/lbg7q9xuDAlkR6P110gnILZdkXkjE9fWiiPDVqldfjuJsO//2+UUk6qwFce1voHUPQOuuDVe7Tp2f8Su3JpwwgH0kYA8E7A/bP94L58+3//PPP5chht8n5ZXMPH5JQkF/9mf8VLi5eME51ehzzGhEbPv/SB/Vj3FsUlrx/4MAfDIAFxHdtOstYrt91pzDRYKCnBZwNLM+1SbzKJDlgH4iMrKBTh6do9erX39K11tvfRvF2SF/kk4yxkycOFHOwSV0kEtkWdeuXW0KGxrHhLM/AjhzA3YJabW5YqKjmy3+Z/G/cOmX2Sh+cjdXFGXfYerSOLF1zXnzHoabO/T8sySYeBEO3pj2+vlbbr0CJz/I5jceEf0HT238mN4K7NqxQ7M06Bfn8/XEravCiu4e4g3ye5YDOpylhE47naMfj4ho7m+QyxhLliz5EnDW0kFeIH/+A/379+/p7tkB9hGAPRdgf8i+LRVVS23auHEs5rc+BKEMcwY6PODu3rZtm33IaQpSyhjuidb7FSca/AH+h4nsLkyHEmpqrCgTi6feFqwHH1ti0d1N3eHv0efO9+AHa811aVSsaLFFXnWmbrouFMjSySF1Exngrww3k/xqfrtwpLl1965d9xg6PH/nnQPkjC3RZ24vwD4c/YBwbUelinJHnTlz29y5c7dyNOhu3xmSRDC6CDEXGnPUyfn6HNx8qmjPua+vhKqS8GI75sNX8FaTdFI6yM/Cucc0adKkI37/nX0BucyNjDJSc914ncN+vtYtEVSDG4YCWY6jQzlr9JThjF6Y8+h9/PayPyjLGbfM+PHjxxmAlogP/aNG5ZuZcQTsbBgLN27Y8DUieAX7e64kJVUljdRMtPK/A8pRuocboreI7FXtc8ZhMdhLf6/CvXuhPZezd2GDueuKZKTh7P0dIP+NvjQnF18vNpVATJWdjP0wzmH6d2iG9HU8dX/GUCArAl1svtqln9Hl31u3bBHu6xegL1q0aArKt/L6OJQzGke2GJd1zpw9Hqmzhni9Cq+2WRwDJNTTnuZSGfUeYsDbol3/ACeVmM2bNzv0qKOdAK6T3QYQjT1/O6Gv32EunO5vuzZmtYZo7CUZhfXiOLAkY15H1WtGUSDLAR0x9ABiunZeNHD0AMJUK8AJhyKqTvaFWHDXF1avWtVZBxMa6jVw5md96dMSWdYeJdwwztFvc06vYt8f4np1lG9jMZ2JBcEmXbSDseU4EAWwZ1QoX2EKksZGX+bn6l7ManI+N1ZjTWNjmZlR46l+M4YCWe6MLqYznRT2bqyIwT6VPGIDqQ/IX9L7R7N8pE/fvndIwgl/kB9N+ySUeQ1Zwxj6c1TZRIJqXIE8EZfT7Zz9X0Pz35iKqmLLzzCQWzLO2Pso7FNmNX+8DZnbR5YDeof2Hb6HRFp6YSNHl/8Tl95UuLo3JES8DiaC7Q/u1T3QLgLygZLK2Zv+nN0j9m+cbR5v3abNI7QxnfYJ99RwzvH33XLLLc04Sow24+Ti67xFr4DobjVnSn/EAizCrGY9Pvk6hro/cyiQ5YAOB5OsLZpfu4PAlIB/lyx5HdAW8ZR8a9aseYMQTD0aLrljp04vcO7d5Gk/rtpLymc2ondmz569g0y14tlmo1V3dS8Kwuoo4ITbZxrIyBkvGWWMc0xGbJ/rT5qovjKHAlnujC5kadmq1U8EknSBo6fbqC5euFALG/YLNDMdm44SrBfc/H86ySn68DNnfSmU6PMlVVj4DD5GVRcCXySWXIt5d1CFxeVYmM8KYnL7mYCdJ+nvVTahDLdjk1nmDuOkMO/tQWz32dvQZ6KqDjymQJbNAvvJxx+v40wtpYOtnN2QajnpjjvvvLdp06bT3FEE7l/8u2+/3QuQNFdRlG9b7ho6tK0v53KcXaR22mAcebpa+tU2JAfpntMVcDDE46Sigb/I/aIIy2d3bwLz21O7du238dRbYta2744Wxt+hS31CY5fxXUl9bBJQfMIG87wn/ai2NwYFsizQsSe3Jb5cKo8UsxfhLUElcQ8+9FA3PMlcOnZQU20xiSRuEe83ItJODxo0qCuafVO+6PojRGNeGAmjNxtPb/rqkZKaas0C4ySvewrguVSwUKGL4pPPvVaFlwXoyZjl3ucs/hVBKW3Q1r/LGHUYT0tvZQD9VUB+hM1pPvbzMegT/BYbjtTwLnnjJaONPt4VxmjHGBmm/LsxIJE9Z5FlgS6Pg4iw91YsX/6yDnT74gmUZDr1wEMP3QJwHSZpxLNs5JLFi7UMLQA9/vb+/e8EYH+ZedQCbsTo2/BKGxxx7Fgn7tGUeE7yuotPeFyRokXPMZdlAPNvnFqWo0E/h0ltNJzTar4ToAOmJWjVJWWT9WIT6ch4z5G9ph1AD9Z/MBRwkKyzu6SiSsmSJRcRWSYZYrz2/eeYsBH7uWSU0YDOOOvwJbDPPmuGVKrNDUCBLA10S964DbjACrezXkawWcDeBYBJjXMjcOr/8tNPkl9dq6XWsXPn54kZl8QSTi/AXRCw9UU0HwrnFnBrSj8nBRwu5Uf0xpT2B8BeCrBXYE831iuXJBmtly1bJlKJFbhw6GPdunVrTdtTjibCmsswvvi234dyriIA1I4FOuAt3F7qlUsp4ziAf5ANYDumwoMo0tZxzr7ABhPhyrFGss8wxr/6+qRP1jACGvpFb3EDvPc5bgpZGujytCSjDCL8Cj2vu3xnz1UB+0kLZ7eCnVzwm6JOn5YywgG16tSZMWDAAJsMLvqbINVSJcccL/4gROyOAkqjOG4AeqKEfZYrX34DoJ5frmy5VVgInKZCZtMoRhLJzfy15r2jLzG9DeAcbEqqYO234FE3hE93zvIS7CMZW60vsYP8GxLFJuGtMQJ2/n2GDWWHZHJlE5DsuclIAglsIm+wbmuoLX0e4hjRwpOw1hyHpBt8wVke6EJfTFaDqLkmVUSt9c+MdJdkC7zApwllfRIF3XTiwt/fvHGj5hhTumzZLXfddVcXXvhoA7hDqJJ6+57dux8FRPUQ622cWCxAT+ZMfwZQr+azGA+11QB7r9nnzZw/2r9v3yhjNVWUa28xvzfN9mFsJ2WaSNHcERNhJ1Iy14fbBwNgsaoYvdqMiSe02y2bgVYmCkBLllupK2dTcJFNYRZAt9HAezNHdc/1o0C2ALoB7CJaFrXn6IasKldatW79+bq1a5/kXF8AoF6kEOPNUkVFAlkAd/fwnTsfAdz1eemt2VQsYaqS5SIGbrsBBdoK+fBvr1IpwYmbY+9fSn9FdKCj0V5OBppO/ngVxKMNR5eKnLFDsIV3BfQVqKVWjyOORPiJQk+OHPIXMvxnYXVkFaBNamil0H5sYvP9MTfVx/WhQLYBugXsQ+DsYwG6MeVROi4mbUWB1wy/eBRWm1E8DSUDjIjQwrl1zba4vSZSL201G8FaQL2Uj19CM6nftpEAF03RJUAHbMf69OnTENFYqrJmyCXgl+HkA9cXb7e8+LFLOee6SAB3sCkUwxPOOrYOev5urd+wYQuVZCJDHkumdZqtgK6D/Y/Zs8WXXFOyaaD+L0+aNeLNYJITjXggXFuAHY/SaXfFSpVWY0qSrLDLAZ+Is367CGp5Yvu2bVJ2WOsToMd06tSpG5uJVxVmvJ2YAB9gl4Pj90GCeRqOX8sRR0eD/zIbnN8qwXg7X3WfbxTIdkAXcqA4u2nK5MlTEhITtXphjtI9G23vjZo0mUygyHRcazPE+UR/RJyjay1cuEAALaWI5eu0sAYNniU45XPfHqP5u8VBCE7eHHAPQpRvajnHi0NOGg46VQG/0VZ/tH79+qKEs7EWmB9NtbxRKJAlXWDdEU8SRHLmbvPrpEm/cR6WogPWyxjDrn8pDjMAfWpGeJgZxyY3u+SfC9a/o1DEvMwAuYAb+3tHHGB6YbeXgpSioJNnn4IScjsWgt+CS4ZsOHzgwGyA3l6fH8eaeQrk7t62rPF7tuToRtLj9/7k8mXLxO/dWLMsXUAMovuVmrVqTe7Vq9dIXm7TUWVmH/OWLVtGoej7SG+PV9xuzuVN/X000Ptno6sF1x6AaN4FsVwqsUhwSm6km4uMGYnr7BQ+f+j55zDzVaTc1DLaSN53cZI5y4Z5K2DfZnaNqt2NS4FsD3QhvdjaCVr5kSolVm5l7zarJ4BEEx/ZvHnzz3Ge+cxfjw2Rvea8eXM3GDzaLmDqk1xuO/w1hvQDuKuxxoFw7tsAdw3EclEuCudOAOCnOW8vIR3VJJxottg7zECj+ygVLV6CWrUZHGwW4QnnNhGmP+ev+so4CuQIoOvkw+X1Qbj7G8LhnAFdb1uC+O9WrVq97W0KKeMjw1V3FVr9tpZzeUqjxo0fQ2SXSrA+XwC0DZz7Djj3zXDlCowhnFts4eIZd65EiRIrUDD+DsAXAW6nIa4oCZchtotDkFxXqO/eH5PaAp8nqDq4ISiQo4AuFOe8GkT+tjfDd+yQsk7/BZ8YNPPSTtdAU5ttD4B/E8BP9+aJIbI/g5b9U71PzuVzsJf386YvuQcwFyLQpRUhpJ0A+O2YxUQslySR8iwTmfd5atHtwmLwFSDfYMabDZpUxcS4XfcdQCm3kRrvLf2df87bNav7fKdAjgO6TjJxkCFV8msAXjLSBOuiu/67jSspmwBKq0PNmjX7AC30RMAjed3cXojs1RHZJXlFsDSmksx+Ukk19lQHQD9hUWejugHwnmjM6zE34dhaZVgALsbvOFxYt+LEM45z92JLjjq389MbYKX4iE1jlL5mCzefbboD1fCGp0COBboB8OVwR31s165dDyRdvlzWGdANTzIGsE+hLvl0lFXi3eb0opTTWkvmV2kT171HDzmXb3b3VogZDmB3RBxvDwDFqaUgIJSyzCKWX+XfUkopiTP3RsTyuYD7L8DtVcoryRG/adOm/fjKVxeg89nfsEmTRjjI+CVPnru1qt8zhwI5Hug6mSVnHHHfd2zetOkpPMdq88JbK54ItzfWXrP4ul+Fix4hOm1andp1Jtn7uSOyP0na5i8sba9wLn8BP/Yv7B8ronggnPomxmyBEq0DHynmKIAWcEtzeUaSsz2e8fYC7qXyYcNY549XhE2lz8FDB2fRF0MEBrBpvIiDjNU64I8xVB/XnwIK6A6egRRWpH74vVRqkYi2UvZivYPotSuciw/h/DKas/E/KckpRWf/MVtSLpWQtnjaLSKpY29RhokGHm7dEm7dFm7dBqCLnkCALdru/CjQhJNKkMllwLyCc/ZG/ODX8TfcVWFFb18l0mhN4xijRe5xNj8IN28IN/e7edHb+an7/EMBBXQXdJQii2Sy6cMZdgAhqlIHTUsu4SRMVesJP/vLxKGnJF25ci1WHaDXrVfvF8AUShkm8W8XUOc3uMAKsOMA8QXE8PWYvrbhwPIPEsJO/zxi571I6SccaCSbjlZFhjO+4uYZTfTr1L8CuknCW5JO9BTQ40nXhduEE2v0c5J4QuvZSSqpAMx3IibPJ42zOK4s54x9wuRU/NYM09xd5LbTCl6w8exp0rx5M8XN/UbeG6qjbOkCmxEUtmjKpUKJVqUEwHeiBnnHw4cODZGQUL7SHE08uVCA5cZ2XQhNupR/ynSg4yCjp7BKRtP+vAK5J08va7VVHN0PzwuxvAIeaS0l4wt/OxP2KSWjxJ880BlHN4ju4sQiEXKXOYuHk/bpIOfxNfx7E8o3KWaYIaGrzLkZeojFSCPFOZtvoDhEa1cONX4gk+riOlJAAT0DiC9ne9IxtQVMYQC/O7nmw+DcErEmXN8m9bMxw4wm6v+XCEI07QLyFEC/XzLkSAZWsr0cKFSw0BHKFp+0z0HnyVLQPXyNMvAxxouuUb3GEHQCfzq6/9lnnlmxecsWcR1Oada06Qoi/Db/PnNmv7/++qs2CsWyQ4YMWUzeuzBPxlZtM58CCuiZRHPMdyWIIGuIR1tzOH9PxP2qiQkJwQBdwP+fKc99xpdkMbVxjzjtJIvnGxr/w3wniSDFRp/K/7ezMRyTf7M5pCufzEZUDiXcajLPVOWe+WFhYX2dcXPmWpUc+qsqhYbuvO++++6fO2fO8HvuvfctzIc3bVi/vvMjjz4qpjj1HmXSe+TtMOoBeUs5P90nmWDxvS/LRlANW3p9Sf+ELb0p3UuiRzGkyyZQxFFSCJmCId2zNiPayQYg5rkkuLV4zcnnKsC/wOes9MeVD27cmX+fAuR92Axclp567513NlWrUWMr3Hv4lClTXh87duxzcHdJYJkbbl8fjm6ThddPpFHd+JECShnnR2J605WkqXJ0H1w3KC42rrIAU7zkBPgo7RrDhUPYGMqLaUyAxkeeoSSLkL+yKchHfrO5uCdAPoYkHAmY8ySVlpn6crmupqZqUgf6h1L9+vX7lXqUPQH7dj47Abo3S1f3ZCIFFNAzkdieDIVIHkN7PYzVqdus5HlPTEgU1908ySnJwZasMeLwIptAQfQEcr4W6UA4vUhwuZACRPQ/g3PPuybnJFKB5IqXK7coGD/88MPhKA3PkGpbq+aiLkUBRYEsTgGSdwwnjLW7LIOzebdVq1b115dECO4DWXx5avqKAooCigKKAooCigKKAooCigKKAooCigKKAooCigKKAooCigKKAooCigKKAooCigKKAooCigKKAooCigKKAooCigKKAooCigKKAooCWY4CKnqNR5a2eNTzF+6f9Tb/lBJGLq6wxELLZ1cqWD3XeW+fNGO9yFjvcb8Wl+78CktgrCqMJRFnTq+0Qz/2jev40R+mEs0762Xg2LdCPuvyprdrcnQf63zZsk433YbFs86qrFNVbPXnA7DrK8cCnRfxGV5EKb4oSRw9De65HNDwheUhC4dr/t/uLsZ61rKRSG52T69UxvqXsSQ5ZboLoA8A6NN9Avp/vV7J8+rfg4IeqfaHp5OU9qxzlGWdWullD69k1vkP61T13jwknJnmbriKmS6yVhuA0SO2Yo0LvJBSJinYC5DLgoXzu80Rx1g9GSuOsT6hvTcgl7H0mHRnhJbIMn9d+VLevXX2+YqjzqekpZlmAqyzD+u8xDolCYU3IJf5SxisG4nKX8vMef14ysmyNIXgOE9d6PjRaMtL5eta0lx1oEkM18bSqjD4eKW4uD/Vx74d3D6rREylAKkGE+yub+3Yc22d/rhc0tQfA+TUPnIMR4frdI+7xsWtaZt8fOhOpWXDWP4AuUzTaRVUfssgcMwKOv/MkjdcbmaHfuwNTf0Fch8fh7rdFQVyBEdPSztc7HKvW2eCTDMbm3BIAagOIPkrQLOnlUMQM1ZRxppm8swsfZsRkV09J3dAl7lLG883nelfv5x4KO1LFGXR9i8R6wxmnVNMrlPmYIb2/tqEFertKJAjgB7wz/fDE3a4PSNfQBF1D4oohzXB09KWVI+r9PBmXmw5a8sL6fgs+s/3jzKWpHp2dV1krPsZa46jRoxVm7G2WMaSJt6ee1PyjTtQu2jXXIfTAfWapeEd132H57uy+IhkqJmXbp7/fP8w69Sq0bi4zrPO+1jnfCfrFJqGs079bC5VYtWVARQws8tmwLCZ22Xqof3ysjq/Gr4wNyTyYIgzkMuNuXJ1OVQs8mAw7fKVWP5CH3ZISfWU7mKstm7GmkcfJZyB3DLWPsYqTLtcjDWAsbythSYbuUOxP1fX0R+XOD62LjuWS4kgZf8RKfroaJ2t3axzDvMv6QzkBpoWtKxTaBqXuW9GzhktZwB9f7grM1hqvqcfetGTR56r+vB5QU5Ma6n7w7u66ouxnvdwrN8Zy1Wf7kR/p7+zeR0p9GqYVpLJ6bX3cCuHQN8fLgkrnV3JXqxTaOqSdp7QTbW1pUC2BzpnyRJX97oSfcMC8lQLcOmUYvalkfM5Y0kRRSdXWLK/xjIM4A7orhR5AYFde01zczBO946wzsKsUys46fgKu8o6lQOM2RcnE9ple6C7p2F4IOdQ1+K2+070Fm4UY+F5GauN+e5MtXQHdHe/u1PmOZqEGyVieP4MWKcpYqhGjimQ7YGeK1e1C7nraAUNnF7iJBLz/eHevr4kjBXPWC4dWBhrLmP18nUsDzi662d8+EAjl5rzOtWkzrvNxToTWKdLN2DWOYd19vDjOlVXPlAg2wNdaJOvR3/x2HJ15eLFnIdH2DlPPMIcdWhyrPnifebDc/PkVpcc/cqiWY+56ixfj5t/dbLOz91MIhCaLmSdsb7S1JPFqrY5lKNry76l22/mDLSzQmIq1bzKyxnt9ct5S7eJJscqcb5ijTTGOuv1WNeeqdeiecr3/X6Pnx5Qzjk4+l/CNHfQ4e/maVrUZ5oq9PpMgRzB0cU0hnZ5unlqzQq69nLWiI1bnFbN/H2aGe4gY80wf8+skpaxEhmrhvn7TLdM5yuBMi0ksWeNuJh3w+9wyc3HfdTY2e8Wjf0007MIsNJU1lnd/H2qpT8o4I4b+GOMG6KPNII0rjxbMxIOVt6LCUXj+DEEm7DD0sL2/VnGOs1Ypb0YK56xBjLWIjP3mgxTlfrrsqnr3nHuN/iBY98kdPUtV3OwrPM466xgZq52bWJY52CzNPWif3WLgQI5BuiyZsuLGcGLWdG7tyAsxhI7LQEfLi/LWCcZS+qieXFp8egVcT91ORZA70eY6myTrqhm5pESMHDsR4D8VTONfQQ7Q2jx6BLjH21mPNXGOwq439m96/eGvIsa4Gn5PztYqcS4/uIg40V4Z3hQQseaZ9Emd3O3QMtY5SxjuYo+c9JVeCHGOudnDb2raUOPsOhCyw+UNgty6cyyzoqs8wX+6806i7DOKNap4tDdvVQ+/J6jOLo9nZKeqXEGjluS7z3e8BA7e3gidjLWWctYHj8uxurDWOn9zUVKOfTj7XD0Wb5x9P4BIZGj/fIusM7zrLOEx4vkBtbZi3Uu9OZedY9rCnj8gmcngsLdy+BnHQg3ErdUj+K6U959ZgGRXcFm6cFYpTSf7nH9XzZ7j96OseYwVnFP7zPfflYAIakeuQE765t1hljW+ZLsQ3xceuYZ+7Gs0zRNza9PtczRQNcfPwEen/By5iHIozqmMXGuMfFyhudOGPPv056+Qoz1gQaE42NrMJbJYJXwXC7G8sazLf20pz/8wfmeP/qNm7LOD1lnbtZZk3VKbXUzNM3DOh/3lKaqvXsKKKAbaITJ6DBRY0UkOo2X87Jb8k3/6xW3bZw0sETDFWKs2xjLvb5g+l+S387jizDVmrKxWDaX2hbQOe5nx0c9APvfHg/i4gYLTQtb1ul+Y/Nynf6cc3bsSwHdwVMlOm1B0eN/ly/UMCDK9UPfH4hI7S723GUXjDWfscoy1gU3YwUwlqNAEncc3aogA3T7LesSDusM7F1RjPXz98vOOhcydgXW6cYjcH9eJ+v095RyVH8K6E45brWLBRaMbec6Xjs8IOWwd4on47D4jstYbV171GljlfLi7bTRPTBWTIGvXxjiaizOyjMzQidgWWcbE+sUBam6/EgBBXTXYueB/APdhlv6RVsNt93LWG4kCIfuru44errf4a5z8d5zmEnnGjnQPzz+kwdeb+bfSJEqWGe0mzv8QlPzs8r+LXME0KNGvfa1D/7k7rTxNkomxvrGh9fGnV7A0VzcAd3hMw58+LMHEKOdXzs+cinCs86xPtDUZTQhk3K3Jh9InDNvzRFAD0qZ8pjmT97zxz88ecySyhibsAtxWUtaYXPmZKyRWrCK52O9yFihzucXlmY/lqWtO1A45I6I0VEFnu7v0sUVEX6GMxMi6xzhA01dBNKEpTpZpyePTrW1o0COALp1zTs+6gsIU/nEYTd2mtKJ5IyhFCSIJXmi67zsDXstwHUz3uFb9d9Yl1zZqBmrEmPFM9YHLt/Ohr3+ZCyHeeq8FYMxgb1ZZKBm+nJyhYu560mX/V9bZwqfaDc0rcg6z1to6vy9a9jrb+UO6/99KkechfDWSoNb+v1y5LGWgWP1c5RQEs+4XnjGzXfmGYd5rRqhpkecLd6Mr7yY6OzDVV2s02wKa4dTgqZ9Wedcvz+sHN5hTuHo7s7Znr8GDV+Y58wt1fPO3NxBlloXWWNdie7uxPoAFHN/uAurvXL/CzsczFAi4hxd3jOPhi/MViD3+9ujdZhTgO72hfeMvP0TKAbYx7N7vG3d/yJj9XVxt7u1uQVe4MOPv+za5DWrIGK5veuunzfP/rGss7+3VFL3uaZATgG6v9I2ScXPvwgAcVVg0Y3ji+lXUiq2LmAsrwJELKOYcDu9liyj6Lj+4pvu/Jr+9dt2irlo0ytx3TCedc5mnS6yyvpppBzcTY4Aer5Px7a2uLSKuOlpoJdwLj5h57UQTjelkhmrucXJRtxaPQ3btABT4t4PlGMsMwkrXXFsSTThlqNr7/8tj/yIuc2FK254ILb1STpWLDQVl1YxCbp34bUFmeU5hMWyzkqKk2f8DmTuJcj4eWTqCCiS9qGcq8KgetYVnQ66Ikn+Am7E5sjR3mSJsa6HsQ5ZstoI6GQ8fXM10p7x+kd7w71Rpt1sUcbpoJZ+5SPjJKJIa+CoJJMjgmvFITt+NM+yE+rZaIzzTCIpxavEq0sZaJuLdW5nnZX5Uu6zn4v0ITSVdQpNXZjXMvVVUIMpCigKKAooCigKKAooCigKKAooCigKKAooCigKKAooCigKKAooCigKKAooCigKKAooCigKKAooCigKKAooCigKKAooCigKKAooCigKKAooCigKKAooCigKKAooCigKKAooCigKKAooCigKKAooCigKKAooCigKKAooCigKKAooCigKKAooCigKKApkcQr8H4OPi+CE7nD5AAAAAElFTkSuQmCC;" vertex="1" parent="1">
          <mxGeometry x="942" y="110" width="72" height="72" as="geometry" />
        </mxCell>
        <mxCell id="-I0i3U4V1WcIUfZD0PCD-11" style="edgeStyle=orthogonalEdgeStyle;rounded=0;orthogonalLoop=1;jettySize=auto;html=1;exitX=0.5;exitY=0;exitDx=0;exitDy=0;entryX=0.5;entryY=0;entryDx=0;entryDy=0;" edge="1" parent="1" source="PeT0A_K3gaV03i7FRMbl-21" target="GBBGYH43FevbotDyQqNy-1">
          <mxGeometry relative="1" as="geometry" />
        </mxCell>
        <mxCell id="-I0i3U4V1WcIUfZD0PCD-12" value="&lt;font style=&quot;font-size: 12px;&quot;&gt;&lt;b&gt;SOAP&lt;/b&gt;&lt;/font&gt;" style="edgeLabel;html=1;align=center;verticalAlign=middle;resizable=0;points=[];" vertex="1" connectable="0" parent="-I0i3U4V1WcIUfZD0PCD-11">
          <mxGeometry x="-0.0346" y="2" relative="1" as="geometry">
            <mxPoint x="1" as="offset" />
          </mxGeometry>
        </mxCell>
      </root>
    </mxGraphModel>
  </diagram>
</mxfile>
